<?xml version="1.0" standalone="no"?><!DOCTYPE svg PUBLIC "-//W3C//DTD SVG 1.1//EN" "http://www.w3.org/Graphics/SVG/1.1/DTD/svg11.dtd"><svg t="1695806964371" class="icon" viewBox="0 0 1024 1024" version="1.1" xmlns="http://www.w3.org/2000/svg" p-id="4534" xmlns:xlink="http://www.w3.org/1999/xlink" width="200" height="200"><path d="M512 64c247.424 0 448 200.576 448 448s-200.576 448-448 448S64 759.424 64 512 264.576 64 512 64z m0 96C317.6 160 160 317.6 160 512s157.6 352 352 352 352-157.6 352-352S706.4 160 512 160z m160 304a32 32 0 0 1 32 32v32a32 32 0 0 1-32 32H352a32 32 0 0 1-32-32v-32a32 32 0 0 1 32-32h320z" fill="#333333" p-id="4535"></path></svg>